<svg width="253" height="136" viewBox="0 0 253 136" fill="none" xmlns="http://www.w3.org/2000/svg">
<path d="M54.6877 135.706H54.118C54.118 128.613 51.2972 121.811 46.276 116.796C41.2549 111.781 34.4448 108.963 27.3438 108.963C20.2429 108.963 13.4328 111.781 8.41163 116.796C3.3905 121.811 0.569663 128.613 0.569663 135.706H0C1.08064e-07 128.463 2.88086 121.516 8.00882 116.394C13.1368 111.272 20.0918 108.394 27.3438 108.394C34.5959 108.394 41.5509 111.272 46.6788 116.394C51.8068 121.516 54.6877 128.463 54.6877 135.706Z" fill="#3F3D56"/>
<path d="M252.931 135.706H252.361C252.361 128.613 249.54 121.811 244.519 116.796C239.498 111.781 232.688 108.963 225.587 108.963C218.486 108.963 211.676 111.781 206.655 116.796C201.634 121.811 198.813 128.613 198.813 135.706H198.243C198.243 128.463 201.124 121.516 206.252 116.394C211.38 111.272 218.335 108.394 225.587 108.394C232.839 108.394 239.794 111.272 244.922 116.394C250.05 121.516 252.931 128.463 252.931 135.706Z" fill="#3F3D56"/>
<path d="M185.995 70.5558H185.426C185.426 43.5735 163.448 21.6219 136.435 21.6219C109.421 21.6219 87.4437 43.5735 87.4437 70.5558H86.874C86.874 43.2599 109.107 21.0529 136.435 21.0529C163.763 21.0529 185.995 43.2599 185.995 70.5558Z" fill="#3F3D56"/>
<path d="M41.4432 22.4754C47.6569 22.4754 52.6941 17.4441 52.6941 11.2377C52.6941 5.0313 47.6569 0 41.4432 0C35.2296 0 30.1924 5.0313 30.1924 11.2377C30.1924 17.4441 35.2296 22.4754 41.4432 22.4754Z" fill="#F47521"/>
<path d="M43.833 88.5885L63.162 65.5961H101.164L124.387 88.1899L123.918 88.4912H124.086V135.486H43.8595V88.4912L43.833 88.5885Z" fill="#3F3D56"/>
<path d="M55.4622 78.5925H59.8438V63.4433H55.4622V78.5925Z" fill="#3F3D56"/>
<path d="M62.8605 65.2949L86.6869 93.1966V135.486H43.8594V87.8887L62.8605 65.2949Z" fill="#429FDD"/>
<path d="M81.1811 98.7337H72.4346V107.667H81.1811V98.7337Z" fill="#3F3D56"/>
<path d="M81.1811 110.888H72.4346V119.821H81.1811V110.888Z" fill="#3F3D56"/>
<path d="M81.1811 98.7337H72.4346V107.667H81.1811V98.7337Z" fill="white"/>
<path d="M81.1811 110.888H72.4346V119.821H81.1811V110.888Z" fill="white"/>
<path d="M69.0844 98.7337H60.3379V107.667H69.0844V98.7337Z" fill="#3F3D56"/>
<path d="M69.0844 110.888H60.3379V119.821H69.0844V110.888Z" fill="#3F3D56"/>
<path d="M69.0844 98.7337H60.3379V107.667H69.0844V98.7337Z" fill="white"/>
<path d="M69.0844 110.888H60.3379V119.821H69.0844V110.888Z" fill="white"/>
<path d="M56.9887 98.7337H48.2422V107.667H56.9887V98.7337Z" fill="#3F3D56"/>
<path d="M56.9887 110.888H48.2422V119.821H56.9887V110.888Z" fill="#3F3D56"/>
<path d="M56.9887 98.7337H48.2422V107.667H56.9887V98.7337Z" fill="white"/>
<path d="M56.9887 110.888H48.2422V119.821H56.9887V110.888Z" fill="white"/>
<path d="M142.131 11.38H138.144V21.3374H142.131V11.38Z" fill="#429FDD"/>
<path d="M141.846 20.4839H107.951V135.706H141.846V20.4839Z" fill="#429FDD"/>
<path d="M155.518 20.4839H141.846V135.706H155.518V20.4839Z" fill="#3F3D56"/>
<path d="M119.202 30.4414H114.075V35.5624H119.202V30.4414Z" fill="white"/>
<path d="M127.462 30.4414H122.335V35.5624H127.462V30.4414Z" fill="white"/>
<path d="M135.723 30.4414H130.596V35.5624H135.723V30.4414Z" fill="white"/>
<path d="M119.345 42.1059H114.218V47.2269H119.345V42.1059Z" fill="white"/>
<path d="M127.604 42.1059H122.478V47.2269H127.604V42.1059Z" fill="white"/>
<path d="M135.864 42.1059H130.737V47.2269H135.864V42.1059Z" fill="white"/>
<path d="M119.487 53.7704H114.36V58.8913H119.487V53.7704Z" fill="white"/>
<path d="M127.747 53.7704H122.62V58.8913H127.747V53.7704Z" fill="white"/>
<path d="M136.007 53.7704H130.88V58.8913H136.007V53.7704Z" fill="white"/>
<path d="M119.629 65.4348H114.502V70.5558H119.629V65.4348Z" fill="white"/>
<path d="M127.89 65.4348H122.763V70.5558H127.89V65.4348Z" fill="white"/>
<path d="M136.149 65.4348H131.022V70.5558H136.149V65.4348Z" fill="white"/>
<path d="M119.771 77.0993H114.645V82.2203H119.771V77.0993Z" fill="white"/>
<path d="M128.032 77.0993H122.905V82.2203H128.032V77.0993Z" fill="white"/>
<path d="M136.292 77.0993H131.165V82.2203H136.292V77.0993Z" fill="white"/>
<path d="M119.914 88.7638H114.787V93.8848H119.914V88.7638Z" fill="white"/>
<path d="M128.174 88.7638H123.047V93.8848H128.174V88.7638Z" fill="white"/>
<path d="M136.435 88.7638H131.308V93.8848H136.435V88.7638Z" fill="white"/>
<path d="M120.057 100.428H114.93V105.549H120.057V100.428Z" fill="white"/>
<path d="M128.316 100.428H123.189V105.549H128.316V100.428Z" fill="white"/>
<path d="M136.577 100.428H131.45V105.549H136.577V100.428Z" fill="white"/>
<path d="M120.199 112.093H115.072V117.214H120.199V112.093Z" fill="white"/>
<path d="M128.459 112.093H123.332V117.214H128.459V112.093Z" fill="white"/>
<path d="M128.459 125.749H123.332V135.422H128.459V125.749Z" fill="white"/>
<path d="M136.719 112.093H131.592V117.214H136.719V112.093Z" fill="white"/>
<path d="M144.124 11.38H141.846V21.0529H144.124V11.38Z" fill="#3F3D56"/>
<path d="M184.856 62.0208H180.868V67.9224H184.856V62.0208Z" fill="#429FDD"/>
<path d="M184.571 67.4166H150.676V135.706H184.571V67.4166Z" fill="#429FDD"/>
<path d="M198.243 67.4166H184.571V135.706H198.243V67.4166Z" fill="#3F3D56"/>
<path d="M162.496 77.0993H157.369V82.2203H162.496V77.0993Z" fill="white"/>
<path d="M170.757 77.0993H165.63V82.2203H170.757V77.0993Z" fill="white"/>
<path d="M179.017 77.0993H173.89V82.2203H179.017V77.0993Z" fill="white"/>
<path d="M162.639 88.7638H157.512V93.8848H162.639V88.7638Z" fill="white"/>
<path d="M170.899 88.7638H165.772V93.8848H170.899V88.7638Z" fill="white"/>
<path d="M179.159 88.7638H174.032V93.8848H179.159V88.7638Z" fill="white"/>
<path d="M162.781 100.428H157.654V105.549H162.781V100.428Z" fill="white"/>
<path d="M171.041 100.428H165.914V105.549H171.041V100.428Z" fill="white"/>
<path d="M179.302 100.428H174.175V105.549H179.302V100.428Z" fill="white"/>
<path d="M162.924 112.093H157.797V117.214H162.924V112.093Z" fill="white"/>
<path d="M171.184 112.093H166.057V117.214H171.184V112.093Z" fill="white"/>
<path d="M171.184 125.749H166.057V135.422H171.184V125.749Z" fill="white"/>
<path d="M179.444 112.093H174.317V117.214H179.444V112.093Z" fill="white"/>
<path d="M186.85 62.0208H184.571V67.7538H186.85V62.0208Z" fill="#3F3D56"/>
<path d="M253 135.363H0.0693359V136H253V135.363Z" fill="#3F3D56"/>
<path d="M208.685 122.358C212.781 122.358 216.102 119.041 216.102 114.949C216.102 110.858 212.781 107.541 208.685 107.541C204.588 107.541 201.268 110.858 201.268 114.949C201.268 119.041 204.588 122.358 208.685 122.358Z" fill="#429FDD"/>
<path opacity="0.2" d="M214.202 110.001C214.894 111.617 214.988 113.427 214.467 115.106C213.946 116.785 212.844 118.225 211.358 119.167C209.873 120.11 208.1 120.494 206.357 120.251C204.613 120.009 203.014 119.155 201.843 117.842C202.265 118.83 202.898 119.714 203.697 120.433C204.495 121.152 205.441 121.689 206.468 122.007C207.495 122.325 208.579 122.416 209.645 122.274C210.711 122.132 211.733 121.76 212.641 121.184C213.548 120.608 214.32 119.842 214.902 118.939C215.484 118.036 215.862 117.017 216.01 115.953C216.159 114.889 216.074 113.806 215.762 112.778C215.45 111.751 214.917 110.803 214.202 110.001Z" fill="black"/>
<path d="M208.704 114.949H208.725L209.092 135.954H208.317L208.704 114.949Z" fill="#3F3D56"/>
<path d="M210.056 126.39L209.885 126.066L208.659 126.711L208.829 127.035L210.056 126.39Z" fill="#3F3D56"/>
<path d="M230.491 115.279C236.72 115.279 241.77 110.235 241.77 104.013C241.77 97.7907 236.72 92.7467 230.491 92.7467C224.262 92.7467 219.212 97.7907 219.212 104.013C219.212 110.235 224.262 115.279 230.491 115.279Z" fill="#F47521"/>
<path opacity="0.2" d="M238.881 96.488C239.933 98.9461 240.076 101.698 239.284 104.251C238.492 106.805 236.816 108.994 234.557 110.427C232.298 111.861 229.602 112.445 226.951 112.076C224.3 111.706 221.867 110.408 220.087 108.412C220.73 109.913 221.692 111.258 222.906 112.351C224.12 113.445 225.558 114.262 227.12 114.745C228.682 115.229 230.331 115.367 231.952 115.151C233.572 114.935 235.127 114.369 236.507 113.494C237.887 112.618 239.061 111.453 239.945 110.08C240.83 108.706 241.405 107.157 241.631 105.539C241.857 103.922 241.728 102.274 241.253 100.711C240.778 99.1485 239.969 97.7074 238.881 96.488Z" fill="black"/>
<path d="M230.522 104.013H230.553L231.111 135.954H229.934L230.522 104.013Z" fill="#3F3D56"/>
<path d="M232.576 121.411L232.316 120.918L230.452 121.898L230.712 122.391L232.576 121.411Z" fill="#3F3D56"/>
<path d="M7.59394 122.073C11.6903 122.073 15.0111 118.756 15.0111 114.665C15.0111 110.573 11.6903 107.256 7.59394 107.256C3.49754 107.256 0.176758 110.573 0.176758 114.665C0.176758 118.756 3.49754 122.073 7.59394 122.073Z" fill="#F47521"/>
<path opacity="0.2" d="M13.1111 109.716C13.803 111.333 13.8968 113.142 13.3759 114.822C12.855 116.501 11.7533 117.94 10.2676 118.883C8.78188 119.826 7.00904 120.21 5.26586 119.967C3.52268 119.724 1.92275 118.87 0.751953 117.557C1.17459 118.545 1.80714 119.429 2.60579 120.148C3.40443 120.867 4.35007 121.405 5.37719 121.722C6.4043 122.04 7.48834 122.131 8.55419 121.989C9.62003 121.847 10.6422 121.475 11.5499 120.9C12.4576 120.324 13.2291 119.558 13.8109 118.654C14.3927 117.751 14.771 116.732 14.9195 115.669C15.068 114.605 14.9832 113.522 14.671 112.494C14.3587 111.466 13.8265 110.518 13.1112 109.716H13.1111Z" fill="black"/>
<path d="M7.61365 114.665H7.63416L8.00074 135.669H7.22656L7.61365 114.665Z" fill="#3F3D56"/>
<path d="M8.96481 126.106L8.79395 125.782L7.56786 126.426L7.73873 126.75L8.96481 126.106Z" fill="#3F3D56"/>
<path d="M172.726 10.622L175.348 8.52729C173.311 8.30282 172.474 9.41244 172.131 10.2907C170.54 9.63068 168.808 10.4957 168.808 10.4957L174.054 12.3981C173.789 11.692 173.329 11.0759 172.726 10.622Z" fill="#3F3D56"/>
<path d="M41.134 21.1485L43.756 19.0537C41.7191 18.8293 40.8821 19.9389 40.5396 20.8172C38.9482 20.1571 37.2158 21.0221 37.2158 21.0221L42.4621 22.9245C42.1974 22.2184 41.7367 21.6023 41.134 21.1485Z" fill="#3F3D56"/>
<path d="M212.603 31.9594L215.225 29.8647C213.188 29.6403 212.351 30.7499 212.008 31.6282C210.417 30.9681 208.685 31.8331 208.685 31.8331L213.931 33.7355C213.666 33.0294 213.205 32.4133 212.603 31.9594Z" fill="#3F3D56"/>
<path d="M62.7805 15.4585L65.4025 13.3638C63.3656 13.1393 62.5286 14.2489 62.1861 15.1272C60.5947 14.4672 58.8623 15.3322 58.8623 15.3322L64.1086 17.2345C63.8439 16.5284 63.3832 15.9123 62.7805 15.4585Z" fill="#3F3D56"/>
<path d="M67.6232 38.2184L70.2453 36.1237C68.2083 35.8993 67.3714 37.0089 67.0288 37.8872C65.4375 37.2271 63.7051 38.0921 63.7051 38.0921L68.9514 39.9945C68.6867 39.2884 68.226 38.6723 67.6232 38.2184Z" fill="#3F3D56"/>
<path d="M169.593 50.1674L172.215 48.0727C170.178 47.8482 169.341 48.9579 168.999 49.8361C167.407 49.1761 165.675 50.0411 165.675 50.0411L170.921 51.9435C170.656 51.2374 170.196 50.6213 169.593 50.1674Z" fill="#3F3D56"/>
<path d="M30.1918 129.732H12.5322V130.301H15.2863V135.706H15.8559V130.301H26.5833V135.706H27.1529V130.301H30.1918V129.732Z" fill="#3F3D56"/>
<path d="M48.1371 132.008C47.44 132.008 46.7553 132.191 46.1519 132.54C45.5391 131.986 44.7787 131.622 43.9628 131.492C43.147 131.362 42.3108 131.471 41.5559 131.806C40.801 132.142 40.1597 132.689 39.71 133.381C39.2603 134.073 39.0215 134.881 39.0225 135.706H52.1103C52.039 134.702 51.5895 133.762 50.8522 133.076C50.115 132.39 49.1448 132.008 48.1371 132.008Z" fill="#3F3D56"/>
<path d="M115.642 132.008C114.945 132.008 114.26 132.191 113.657 132.54C113.044 131.986 112.284 131.622 111.468 131.492C110.652 131.362 109.816 131.471 109.061 131.806C108.306 132.142 107.665 132.689 107.215 133.381C106.765 134.073 106.526 134.881 106.527 135.706H119.615C119.544 134.702 119.094 133.762 118.357 133.076C117.62 132.39 116.65 132.008 115.642 132.008Z" fill="#3F3D56"/>
<path d="M159.79 132.008C159.093 132.008 158.409 132.191 157.805 132.54C157.192 131.986 156.432 131.622 155.616 131.492C154.8 131.362 153.964 131.471 153.209 131.806C152.454 132.142 151.813 132.689 151.363 133.381C150.914 134.073 150.675 134.881 150.676 135.706H163.764C163.692 134.702 163.243 133.762 162.506 133.076C161.768 132.39 160.798 132.008 159.79 132.008Z" fill="#3F3D56"/>
<path d="M217.896 132.008C217.199 132.008 216.514 132.191 215.911 132.54C215.298 131.986 214.537 131.622 213.722 131.492C212.906 131.362 212.07 131.471 211.315 131.806C210.56 132.142 209.919 132.689 209.469 133.381C209.019 134.073 208.78 134.881 208.781 135.706H221.869C221.798 134.702 221.348 133.762 220.611 133.076C219.874 132.39 218.904 132.008 217.896 132.008Z" fill="#3F3D56"/>
<path d="M245.81 132.008C245.113 132.008 244.428 132.191 243.825 132.54C243.212 131.986 242.452 131.622 241.636 131.492C240.82 131.362 239.984 131.471 239.229 131.806C238.474 132.142 237.833 132.689 237.383 133.381C236.933 134.073 236.694 134.881 236.695 135.706H249.783C249.712 134.702 249.262 133.762 248.525 133.076C247.788 132.39 246.818 132.008 245.81 132.008Z" fill="#3F3D56"/>
<path d="M36.7428 115.791H32.1855V120.343H34.2981V135.681H34.8678V120.343H36.7428V115.791Z" fill="#3F3D56"/>
<path d="M30.2269 128.029H12.5674V128.598H30.2269V128.029Z" fill="#3F3D56"/>
<path d="M30.2269 126.607H12.5674V127.176H30.2269V126.607Z" fill="#3F3D56"/>
<path d="M30.2269 125.184H12.5674V125.753H30.2269V125.184Z" fill="#3F3D56"/>
</svg>
