<svg width="128" height="160" viewBox="0 0 128 160" fill="none" xmlns="http://www.w3.org/2000/svg">
<path d="M46.9606 92.1464C43.59 95.2855 39.9622 98.2248 36.1631 100.879C23.8802 85.5829 14.3395 70.8863 8.31226 58.0161C8.11231 57.588 7.91235 57.1314 7.7124 56.7034C12.6827 55.1338 17.3673 53.8211 21.7663 52.7653C21.9663 53.1933 22.1377 53.6499 22.3376 54.078C28.0506 66.8911 37.8484 80.7601 46.9606 92.1464ZM111.289 55.1624C138.311 184.835 87.1801 138.433 58.0153 105.359C56.5585 106.301 55.0731 107.214 53.5877 108.042C50.9883 109.497 48.3032 110.781 45.5895 111.894C76.3825 146.823 109.575 166.856 121.287 157.04C122.972 155.584 137.969 141.344 111.289 55.1624ZM5.11299 18.8062C-0.999911 25.8834 -0.0858332 38.297 6.36984 53.6785C6.54123 54.1065 6.74119 54.5631 6.94114 55.0197C11.283 52.0518 15.5106 49.4835 19.6811 47.3718C19.5383 46.9152 19.3955 46.4586 19.2526 46.002C12.6827 24.6848 21.595 8.84676 71.2408 17.1796C71.2694 17.1225 71.298 17.094 71.3551 17.0369C17.9958 4.68035 6.76975 16.8942 5.11299 18.8062Z" fill="#F47521"/>
<path d="M92.0933 24.9129C92.0933 30.7344 87.3515 35.4716 81.5243 35.4716C75.697 35.4716 70.9552 30.7344 70.9552 24.9129C70.9552 19.0913 75.697 14.3541 81.5243 14.3541C87.3515 14.3541 92.0933 19.0628 92.0933 24.9129ZM83.6666 68.9741C85.609 63.5235 86.8373 57.9873 87.3801 52.5082C110.518 39.8377 116.402 23.6287 118.287 0C106.547 24.7131 96.9779 34.5298 87.1801 38.1541C67.6131 45.431 47.1892 28.2517 7.02686 56.0183C104.033 25.398 65.8135 95.9701 16.5104 113.72C15.7106 114.006 14.9108 114.291 14.0824 114.548C19.0527 114.919 23.7945 114.748 28.3077 114.148H28.3363C46.5036 111.694 60.7861 102.163 69.5841 92.7169C69.6127 92.6884 69.6698 92.6313 69.6984 92.6028C72.1549 89.8347 74.4687 86.8097 76.5254 83.5565C76.5539 83.528 76.554 83.4995 76.554 83.4995C77.1253 82.6148 77.668 81.7302 78.1822 80.817C78.7249 79.8752 79.2391 78.9335 79.7247 77.9918C92.7217 71.7136 120.201 64.8933 88.4655 102.933C117.316 88.9786 118.259 55.9897 83.6666 68.9741Z" fill="#429FDD"/>
</svg>
