<svg width="153" height="55" viewBox="0 0 153 55" fill="none" xmlns="http://www.w3.org/2000/svg">
<path d="M15.6983 31.5069C14.548 32.5829 13.3064 33.5847 12.0076 34.4883C7.8142 29.26 4.55295 24.235 2.49453 19.8326C2.42485 19.6818 2.35517 19.5345 2.28892 19.386C3.98637 18.8537 5.58901 18.4024 7.09113 18.0381C7.1551 18.1888 7.22135 18.3396 7.28875 18.4904C9.24436 22.8734 12.5879 27.6128 15.6983 31.5069ZM37.6704 18.8582C46.9036 63.1919 29.4322 47.3265 19.4748 36.0189C18.9801 36.3433 18.4741 36.6495 17.9601 36.9362C17.0691 37.4342 16.1575 37.8717 15.2277 38.2498C25.7505 50.1903 37.081 57.0406 41.0836 53.6845C41.6673 53.1956 46.7893 48.3329 37.6704 18.8582ZM1.40592 6.43347C-0.682193 8.85057 -0.366919 13.0908 1.83885 18.3579C1.90168 18.5087 1.96679 18.6617 2.03419 18.8148C3.51689 17.7959 4.96189 16.9255 6.38748 16.1967C6.33493 16.0402 6.28581 15.886 6.23784 15.7318C3.99322 8.44391 7.03402 3.02828 23.9914 5.87945C24.0028 5.86346 24.0142 5.84861 24.0268 5.83262C5.80376 1.59927 1.96908 5.78122 1.40592 6.43347Z" fill="#27ACE3"/>
<path d="M31.1113 8.51696C31.1113 10.5114 29.495 12.1289 27.4994 12.1289C25.5038 12.1289 23.8875 10.5125 23.8875 8.51696C23.8875 6.52137 25.5038 4.90502 27.4994 4.90502C29.495 4.90502 31.1113 6.52251 31.1113 8.51696ZM28.2362 23.5873C28.9033 21.7219 29.3214 19.828 29.5041 17.9535C37.4123 13.6207 39.425 8.07946 40.0612 0C36.0541 8.45071 32.7814 11.8022 29.4333 13.0496C22.7589 15.5375 15.7783 9.66268 2.0639 19.1494C35.1905 8.68716 22.1398 32.8147 5.30117 38.878C5.02702 38.9786 4.75287 39.0722 4.47643 39.1602C6.1716 39.287 7.79252 39.2276 9.33348 39.0208H9.33804C15.5396 38.1801 20.4195 34.9234 23.4271 31.6919C23.4408 31.6782 23.4534 31.6656 23.4648 31.6507C24.3078 30.6992 25.0903 29.6666 25.7985 28.5528C25.8031 28.546 25.8088 28.538 25.8099 28.5311C26.0041 28.2307 26.1892 27.9246 26.3685 27.6127C26.5536 27.2906 26.7318 26.9673 26.8986 26.6418C31.3375 24.492 40.7215 22.1662 29.8811 35.1656C39.7311 30.4239 40.0498 19.1403 28.2362 23.5873Z" fill="#F47522"/>
<path d="M51.5584 39.6673V36.1216C51.5584 34.5761 52.3877 33.8599 53.9675 33.8599H54.4221C56.0019 33.8599 56.7856 34.519 56.7856 35.9845V36.0302C56.7856 36.0873 56.7399 36.1216 56.6942 36.1216H56.4897C56.444 36.1216 56.4097 36.0759 56.4097 36.0302C56.4097 34.7691 55.7963 34.2345 54.4553 34.2345H53.9321C52.5568 34.2345 51.9319 34.8365 51.9319 36.1205V39.6662C51.9319 40.9387 52.5568 41.5521 53.9321 41.5521H54.4553C55.7963 41.5521 56.4097 41.0289 56.4097 39.882C56.4097 39.8364 56.444 39.7907 56.4897 39.7907H56.6942C56.7399 39.7907 56.7856 39.8249 56.7856 39.882V39.9392C56.7856 41.2802 56.0019 41.9279 54.4221 41.9279H53.9675C52.3889 41.929 51.5584 41.2128 51.5584 39.6673Z" fill="black"/>
<path d="M58.7639 40.0535V38.019C58.7639 36.7922 59.5144 36.1445 60.7184 36.1445H61.2073C62.401 36.1445 63.1618 36.7922 63.1618 38.019V40.0535C63.1618 41.2803 62.3896 41.928 61.2073 41.928H60.7184C59.5133 41.9291 58.7639 41.2814 58.7639 40.0535ZM60.6955 41.5762H61.2301C62.3096 41.5762 62.7985 40.997 62.7985 40.042V38.0305C62.7985 37.0755 62.3096 36.4964 61.2301 36.4964H60.6955C59.6161 36.4964 59.1272 37.0755 59.1272 38.0305V40.042C59.1272 40.997 59.6161 41.5762 60.6955 41.5762Z" fill="black"/>
<path d="M65.1952 41.7464V36.3147C65.1952 36.2348 65.218 36.1902 65.3197 36.1902H65.4328C65.5459 36.1902 65.5573 36.2359 65.5573 36.3147V36.8607H65.6487C65.9445 36.4175 66.478 36.1445 67.1714 36.1445H67.4786C68.4222 36.1445 68.8882 36.6791 68.8882 37.5873V37.6215C68.8882 37.7129 68.8654 37.7232 68.7751 37.7232H68.6392C68.5592 37.7232 68.5375 37.7118 68.5375 37.6215C68.5375 36.9853 68.276 36.4964 67.401 36.4964H67.1394C66.1056 36.4964 65.5596 37.0869 65.5596 38.0533V41.7464C65.5596 41.8263 65.5482 41.8709 65.4351 41.8709H65.322C65.218 41.872 65.1952 41.8263 65.1952 41.7464Z" fill="black"/>
<path d="M70.7524 43.7579V36.3147C70.7524 36.2348 70.7753 36.1902 70.877 36.1902H70.99C71.0917 36.1902 71.1146 36.2359 71.1146 36.3147V36.8836H71.1831C71.4447 36.4175 71.9896 36.1445 72.6829 36.1445H73.1833C74.4101 36.1445 75.1491 36.7808 75.1491 38.0647V40.0078C75.1491 41.2917 74.4101 41.928 73.1833 41.928H72.6829C71.9896 41.928 71.4447 41.655 71.1831 41.1786H71.1146V43.7579C71.1146 43.8379 71.0917 43.8824 70.99 43.8824H70.877C70.7753 43.8836 70.7524 43.8379 70.7524 43.7579ZM72.6955 41.5762H73.173C74.2867 41.5762 74.787 41.0199 74.787 39.9964V38.0762C74.787 37.0538 74.2867 36.4964 73.173 36.4964H72.6955C71.6503 36.4964 71.1157 37.0869 71.1157 38.0419V40.0306C71.1157 40.9856 71.6503 41.5762 72.6955 41.5762Z" fill="black"/>
<path d="M77.0704 40.0535V38.019C77.0704 36.7922 77.8209 36.1445 79.0249 36.1445H79.5138C80.7064 36.1445 81.4683 36.7922 81.4683 38.019V40.0535C81.4683 41.2803 80.6961 41.928 79.5138 41.928H79.0249C77.8209 41.9291 77.0704 41.2814 77.0704 40.0535ZM79.0021 41.5762H79.5367C80.6161 41.5762 81.105 40.997 81.105 40.042V38.0305C81.105 37.0755 80.6161 36.4964 79.5367 36.4964H79.0021C77.9226 36.4964 77.4337 37.0755 77.4337 38.0305V40.042C77.4348 40.997 77.9226 41.5762 79.0021 41.5762Z" fill="black"/>
<path d="M83.5027 41.7464V36.3147C83.5027 36.2348 83.5255 36.1902 83.6272 36.1902H83.7403C83.8534 36.1902 83.8648 36.2359 83.8648 36.3147V36.8607H83.9562C84.252 36.4175 84.7855 36.1445 85.4789 36.1445H85.7861C86.7297 36.1445 87.1957 36.6791 87.1957 37.5873V37.6215C87.1957 37.7129 87.1729 37.7232 87.0815 37.7232H86.9456C86.8656 37.7232 86.8439 37.7118 86.8439 37.6215C86.8439 36.9853 86.5823 36.4964 85.7073 36.4964H85.4457C84.412 36.4964 83.8659 37.0869 83.8659 38.0533V41.7464C83.8659 41.8263 83.8545 41.8709 83.7414 41.8709H83.6283C83.5255 41.872 83.5027 41.8263 83.5027 41.7464Z" fill="black"/>
<path d="M92.6503 41.7464V40.9171H92.5589C92.1385 41.4963 91.4109 41.9281 90.4685 41.9281H90.4342C89.1274 41.9281 88.6042 41.3146 88.6042 40.258V40.0193C88.6042 38.9741 89.2976 38.5994 90.3314 38.5994H92.6491V38.0203C92.6491 37.0653 92.3533 36.509 90.9791 36.509C90.2514 36.509 89.7066 36.5775 89.2748 36.7363C89.2177 36.7592 89.1731 36.7249 89.1617 36.6792L89.1274 36.509C89.116 36.4519 89.1274 36.4176 89.1731 36.4073C89.5249 36.2714 90.1395 36.1458 90.8774 36.1458H91.0705C92.4344 36.1458 93.0135 36.7592 93.0135 37.9871V41.7487C93.0135 41.8287 92.9907 41.8732 92.889 41.8732H92.7748C92.6845 41.8721 92.6503 41.8264 92.6503 41.7464ZM90.3554 41.5534H90.6627C91.685 41.5534 92.6514 40.7241 92.6514 39.8833V38.9512H90.3451C89.4701 38.9512 88.9812 39.2242 88.9812 40.0535V40.2352C88.9801 41.1559 89.4347 41.5534 90.3554 41.5534Z" fill="black"/>
<path d="M95.6054 40.7582V36.5317H94.8217C94.7532 36.5317 94.7075 36.5089 94.7075 36.4175V36.3044C94.7075 36.213 94.7532 36.1902 94.8217 36.1902H95.6054V35.1678C95.6054 35.0879 95.6282 35.0433 95.7184 35.0433H95.8441C95.9355 35.0433 95.9572 35.089 95.9572 35.1678V36.1902H96.8208C96.9007 36.1902 96.9339 36.213 96.9339 36.3044V36.4175C96.9339 36.5089 96.8996 36.5317 96.8208 36.5317H95.9572V40.6337C95.9572 41.3842 96.1617 41.5887 96.7522 41.5887C96.8653 41.5887 96.8996 41.623 96.8996 41.6904V41.816C96.8996 41.896 96.8196 41.9291 96.5809 41.9291C95.9915 41.9291 95.6054 41.6332 95.6054 40.7582Z" fill="black"/>
<path d="M98.6964 40.0192V38.0533C98.6964 36.8265 99.4686 36.1445 100.639 36.1445H101.151C102.355 36.1445 103.083 36.7922 103.083 38.019V38.8483C103.083 39.0642 102.947 39.2002 102.731 39.2002H99.0608V39.9952C99.0608 40.9387 99.584 41.5864 100.834 41.5864H100.947C101.787 41.5864 102.276 41.3477 102.605 41.0975C102.662 41.0518 102.707 41.0633 102.73 41.0861L102.844 41.2106C102.878 41.2563 102.867 41.302 102.833 41.3351C102.548 41.6196 101.912 41.9257 100.912 41.9257H100.821C99.4126 41.9291 98.6964 41.2129 98.6964 40.0192ZM102.73 38.8609V38.0316C102.73 37.0766 102.252 36.4975 101.161 36.4975H100.627C99.5588 36.4975 99.0585 37.1109 99.0585 38.0659V38.8609H102.73Z" fill="black"/>
<path d="M109.628 41.6904L107.765 34.0884C107.719 33.9639 107.777 33.9182 107.878 33.9182H107.981C108.095 33.9182 108.117 33.9639 108.163 34.0884L109.947 41.4517H110.027L112.061 34.0884C112.096 33.9639 112.118 33.9182 112.231 33.9182H112.425C112.538 33.9182 112.549 33.9411 112.595 34.0884L114.618 41.4517H114.709L116.493 34.0884C116.528 33.9639 116.562 33.9182 116.675 33.9182H116.777C116.868 33.9182 116.924 33.9639 116.89 34.0884L115.015 41.6904C114.992 41.8035 114.924 41.872 114.822 41.872H114.47C114.369 41.872 114.312 41.8035 114.266 41.6904L112.38 34.6002H112.277L110.391 41.6904C110.346 41.8035 110.29 41.872 110.187 41.872H109.835C109.731 41.872 109.651 41.8035 109.628 41.6904Z" fill="black"/>
<path d="M118.208 40.0192V38.0533C118.208 36.8265 118.98 36.1445 120.151 36.1445H120.663C121.867 36.1445 122.594 36.7922 122.594 38.019V38.8483C122.594 39.0642 122.458 39.2002 122.243 39.2002H118.572V39.9952C118.572 40.9387 119.096 41.5864 120.345 41.5864H120.458C121.299 41.5864 121.788 41.3477 122.117 41.0975C122.174 41.0518 122.219 41.0633 122.241 41.0861L122.355 41.2106C122.389 41.2563 122.377 41.302 122.343 41.3351C122.059 41.6196 121.422 41.9257 120.423 41.9257H120.332C118.924 41.9291 118.208 41.2129 118.208 40.0192ZM122.243 38.8609V38.0316C122.243 37.0766 121.765 36.4975 120.674 36.4975H120.14C119.072 36.4975 118.571 37.1109 118.571 38.0659V38.8609H122.243Z" fill="black"/>
<path d="M124.64 41.7464V34.0416C124.64 33.9617 124.663 33.9171 124.765 33.9171H124.878C124.979 33.9171 125.002 33.9628 125.002 34.0416V41.7464C125.002 41.8264 124.979 41.8709 124.878 41.8709H124.765C124.663 41.8721 124.64 41.8264 124.64 41.7464Z" fill="black"/>
<path d="M127.152 41.7464V34.0416C127.152 33.9617 127.175 33.9171 127.277 33.9171H127.391C127.493 33.9171 127.515 33.9628 127.515 34.0416V41.7464C127.515 41.8264 127.493 41.8709 127.391 41.8709H127.277C127.174 41.8721 127.152 41.8264 127.152 41.7464Z" fill="black"/>
<path d="M129.663 41.7464V36.3147C129.663 36.2348 129.686 36.1902 129.787 36.1902H129.9C130.014 36.1902 130.025 36.2359 130.025 36.3147V36.8607H130.116C130.435 36.429 130.968 36.1445 131.696 36.1445H132.151C133.469 36.1445 134.06 36.7808 134.06 38.0647V41.7464C134.06 41.8263 134.037 41.8709 133.924 41.8709H133.822C133.719 41.8709 133.697 41.8252 133.697 41.7464V38.0762C133.697 37.0538 133.254 36.4964 132.106 36.4964H131.743C130.618 36.4964 130.027 37.0869 130.027 38.0533V41.7464C130.027 41.8263 130.016 41.8709 129.903 41.8709H129.79C129.686 41.872 129.663 41.8263 129.663 41.7464Z" fill="black"/>
<path d="M136.095 40.0192V38.0533C136.095 36.8265 136.867 36.1445 138.038 36.1445H138.55C139.754 36.1445 140.482 36.7922 140.482 38.019V38.8483C140.482 39.0642 140.346 39.2002 140.13 39.2002H136.459V39.9952C136.459 40.9387 136.983 41.5864 138.232 41.5864H138.345C139.186 41.5864 139.675 41.3477 140.004 41.0975C140.061 41.0518 140.106 41.0633 140.129 41.0861L140.242 41.2106C140.276 41.2563 140.264 41.302 140.23 41.3351C139.946 41.6196 139.31 41.9257 138.31 41.9257H138.219C136.81 41.9291 136.095 41.2129 136.095 40.0192ZM140.129 38.8609V38.0316C140.129 37.0766 139.651 36.4975 138.56 36.4975H138.026C136.958 36.4975 136.457 37.1109 136.457 38.0659V38.8609H140.129Z" fill="black"/>
<path d="M142.356 40.5652C142.356 40.4967 142.368 40.4407 142.492 40.4407H142.595C142.686 40.4407 142.708 40.4978 142.719 40.5881C142.776 41.2472 143.197 41.5876 144.106 41.5876H144.618C145.459 41.5876 146.129 41.3374 146.129 40.3607C146.129 39.3715 145.3 39.3041 144.333 39.1785L144.231 39.167C143.22 39.0654 142.423 38.8266 142.423 37.6101C142.423 36.5763 143.14 36.1445 144.253 36.1445H144.538C145.629 36.1445 146.368 36.6106 146.368 37.6444C146.368 37.7472 146.334 37.7917 146.255 37.7917H146.142C146.04 37.7917 146.017 37.746 146.017 37.6329C145.96 36.8493 145.528 36.4849 144.574 36.4849H144.279C143.324 36.4849 142.779 36.7579 142.779 37.6329C142.779 38.5536 143.415 38.7581 144.416 38.8598L144.529 38.8712C145.597 38.9854 146.495 39.1785 146.495 40.371C146.495 41.5979 145.597 41.928 144.62 41.928H144.165C143.084 41.9291 142.356 41.4973 142.356 40.5652Z" fill="black"/>
<path d="M148.299 40.5652C148.299 40.4967 148.311 40.4407 148.435 40.4407H148.538C148.63 40.4407 148.651 40.4978 148.663 40.5881C148.72 41.2472 149.14 41.5876 150.049 41.5876H150.561C151.402 41.5876 152.072 41.3374 152.072 40.3607C152.072 39.3715 151.243 39.3041 150.277 39.1785L150.174 39.167C149.163 39.0654 148.367 38.8266 148.367 37.6101C148.367 36.5763 149.083 36.1445 150.197 36.1445H150.481C151.572 36.1445 152.311 36.6106 152.311 37.6444C152.311 37.7472 152.277 37.7917 152.198 37.7917H152.085C151.983 37.7917 151.961 37.746 151.961 37.6329C151.903 36.8493 151.472 36.4849 150.518 36.4849H150.222C149.267 36.4849 148.722 36.7579 148.722 37.6329C148.722 38.5536 149.358 38.7581 150.359 38.8598L150.472 38.8712C151.54 38.9854 152.438 39.1785 152.438 40.371C152.438 41.5979 151.54 41.928 150.563 41.928H150.109C149.027 41.9291 148.299 41.4973 148.299 40.5652Z" fill="black"/>
<path d="M51.6338 30.055V14.2491C51.6338 14.0126 51.7754 13.871 52.0119 13.871H54.8037C55.0401 13.871 55.1818 14.0126 55.1818 14.2491V27.2621H61.0737C61.3102 27.2621 61.4518 27.4038 61.4518 27.6402V30.0539C61.4518 30.2903 61.3102 30.432 61.0737 30.432H51.9879C51.7526 30.4331 51.6338 30.2915 51.6338 30.055Z" fill="#22AAE2"/>
<path d="M63.8198 30.055V14.2491C63.8198 14.0126 63.9615 13.871 64.1979 13.871H66.9897C67.2262 13.871 67.3678 14.0126 67.3678 14.2491V30.055C67.3678 30.2915 67.2262 30.4331 66.9897 30.4331H64.1979C63.9615 30.4331 63.8198 30.2915 63.8198 30.055Z" fill="#22AAE2"/>
<path d="M73.6162 30.055L69.641 14.3439C69.5701 14.0834 69.7118 13.871 69.9722 13.871H72.764C73.0005 13.871 73.1661 14.0834 73.2369 14.3439L76.1703 26.3871H76.5484L79.5058 14.3439C79.5767 14.0834 79.7423 13.871 79.9787 13.871H82.7705C83.007 13.871 83.1726 14.0834 83.1018 14.3439L79.1266 30.055C79.0558 30.2915 78.8662 30.4331 78.6537 30.4331H74.0639C73.8526 30.4331 73.687 30.2915 73.6162 30.055Z" fill="#22AAE2"/>
<path d="M85.375 30.055V14.2491C85.375 14.0126 85.5166 13.871 85.7531 13.871H88.5449C88.7813 13.871 88.923 14.0126 88.923 14.2491V30.055C88.923 30.2915 88.7813 30.4331 88.5449 30.4331H85.7531C85.5178 30.4331 85.375 30.2915 85.375 30.055Z" fill="#22AAE2"/>
<path d="M91.8826 30.055V14.2491C91.8826 14.0126 92.0242 13.871 92.2607 13.871H96.8984C97.088 13.871 97.2536 13.9418 97.3245 14.1314L101.11 25.7486H101.346V14.2491C101.346 14.0126 101.488 13.871 101.725 13.871H104.516C104.753 13.871 104.894 14.0126 104.894 14.2491V30.055C104.894 30.2915 104.753 30.4331 104.516 30.4331H99.8786C99.689 30.4331 99.5005 30.3623 99.4526 30.1727L95.643 18.5555H95.4305V30.055C95.4305 30.2915 95.2889 30.4331 95.0524 30.4331H92.2607C92.0242 30.4331 91.8826 30.2915 91.8826 30.055Z" fill="#22AAE2"/>
<path d="M107.854 25.6537V18.6502C107.854 15.7168 109.203 13.7521 112.682 13.7521H115.473C119.046 13.7521 120.301 15.6209 120.301 18.7211V18.8627C120.301 19.1231 120.135 19.2888 119.899 19.2888H117.178C116.917 19.2888 116.752 19.1471 116.752 18.8627C116.752 17.2532 116.018 16.9219 115.119 16.9219H112.99C112.043 16.9219 111.404 17.3 111.404 18.7439V25.5588C111.404 27.0256 112.043 27.3808 112.99 27.3808H115.19C116.137 27.3808 116.776 27.0256 116.776 25.5588V23.6901H113.936C113.699 23.6901 113.558 23.5484 113.558 23.312V20.9931C113.558 20.7566 113.699 20.615 113.936 20.615H119.804C120.159 20.615 120.325 20.7806 120.325 21.1359V25.6548C120.325 28.5882 118.976 30.553 115.497 30.553H112.682C109.202 30.5518 107.854 28.5882 107.854 25.6537Z" fill="#22AAE2"/>
<path d="M123.305 30.055V14.2491C123.305 14.0126 123.447 13.871 123.683 13.871H133.195C133.431 13.871 133.55 14.0126 133.55 14.2491V16.6627C133.55 16.8992 133.431 17.0408 133.195 17.0408H126.854V20.6139H132.722C132.958 20.6139 133.1 20.7556 133.1 20.992V23.3109C133.1 23.5474 132.958 23.689 132.722 23.689H126.854V30.0539C126.854 30.2903 126.712 30.432 126.476 30.432H123.684C123.448 30.4331 123.305 30.2915 123.305 30.055Z" fill="#F47522"/>
<path d="M135.822 30.055V14.2491C135.822 14.0126 135.964 13.871 136.2 13.871H138.992C139.228 13.871 139.37 14.0126 139.37 14.2491V30.055C139.37 30.2915 139.228 30.4331 138.992 30.4331H136.2C135.964 30.4331 135.822 30.2915 135.822 30.055Z" fill="#F47522"/>
<path d="M145.689 30.055V17.0408H142.282C142.045 17.0408 141.927 16.8992 141.927 16.6627V14.2491C141.927 14.0126 142.045 13.871 142.282 13.871H152.622C152.858 13.871 153 14.0126 153 14.2491V16.6627C153 16.8992 152.858 17.0408 152.622 17.0408H149.238V30.0539C149.238 30.2903 149.097 30.432 148.86 30.432H146.069C145.831 30.4331 145.689 30.2915 145.689 30.055Z" fill="#F47522"/>
</svg>
