<svg width="24" height="15" viewBox="0 0 24 15" fill="none" xmlns="http://www.w3.org/2000/svg">
<path d="M14.9943 7.49935C14.9943 11.642 11.6383 14.9987 7.49713 14.9987C3.35594 14.9987 0 11.6413 0 7.49935C0 3.35742 3.35676 0 7.49713 0C11.6375 0 14.9943 3.35742 14.9943 7.49935Z" fill="#E2574C"/>
<path d="M16.5008 0C14.8194 0 13.2715 0.560214 12.0207 1.49541L12.0267 1.49615C12.2727 1.73386 12.5441 1.90116 12.7534 2.17481L11.1935 2.19957C10.949 2.44632 10.7263 2.71479 10.5163 2.99379H13.267C13.4763 3.24498 13.6697 3.46328 13.8452 3.74071H10.0176C9.87736 3.9822 9.74765 4.23044 9.63439 4.48838H14.281C14.4025 4.74558 14.5112 4.93985 14.6035 5.21211H9.35917C9.27594 5.47087 9.20471 5.73555 9.15067 6.0055H14.8232C14.8787 6.26501 14.9214 6.50493 14.9507 6.74947H9.03815C9.01339 6.99622 9.00064 7.24668 9.00064 7.49943H14.9934C14.9934 7.76494 14.9746 8.01087 14.9477 8.2494H9.03815C9.06365 8.50364 9.10115 8.75336 9.15067 8.99937H14.8142C14.7557 9.24234 14.6882 9.48679 14.6034 9.74029H9.3419C9.42136 9.99675 9.51817 10.2457 9.62386 10.4887H14.281C14.152 10.7617 14.0058 10.9799 13.8446 11.2356H10.0042C10.1557 11.4981 10.3229 11.7485 10.5044 11.9886L13.2671 12.0298C13.0316 12.3125 12.7294 12.4827 12.4541 12.7302C12.4691 12.7422 12.0139 12.7287 11.1177 12.7145C12.4811 14.1214 14.3867 14.9988 16.5007 14.9988C20.6427 14.9988 24.0001 11.6413 24.0001 7.49943C24.0001 3.35758 20.6434 0 16.5008 0Z" fill="#F4B459"/>
</svg>
