<svg id="Layer_1" data-name="Layer 1" xmlns="http://www.w3.org/2000/svg" viewBox="0 0 987.6 220.1"><defs><style>.cls-1{fill:#5f6368;}.cls-2{fill:#63666a;}.cls-3{fill:#34a853;}.cls-4{fill:#fbbc04;}.cls-5{fill:#4285f4;}.cls-6{fill:#1a73e8;}.cls-7{fill:#ea4335;}</style></defs><title>pwb-google-maps</title><g id="g19"><path id="path6" class="cls-1" d="M585.6,127.3,617,114.2c-1.7-4.4-6.9-7.4-13.1-7.4-7.8,0-18.7,6.9-18.3,20.5m36.8,12.6,12,8a35,35,0,0,1-29.3,15.6c-19.9,0-34.4-15.5-34.4-35.1s14.6-35.2,32.7-35.2,27.2,14.5,30.1,22.4l1.6,4-47,19.4c3.6,7.1,9.2,10.7,17,10.7s13.3-3.9,17.3-9.8m-76.1,21.5h15.4V58H546.3Zm-25.2-32.9c0-12.4-8.3-21.5-18.8-21.5s-19.6,9.1-19.6,21.5,8.9,21.2,19.6,21.2S521.1,140.7,521.1,128.5Zm13.5-33.2v63.1c0,26-15.3,36.7-33.4,36.7a33.4,33.4,0,0,1-31.1-20.8l13.4-5.6c2.4,5.7,8.3,12.5,17.7,12.5,11.6,0,18.8-7.2,18.8-20.6v-5.1h-.5c-3.5,4.3-10.1,8-18.5,8-17.6,0-33.7-15.3-33.7-35S483.4,93.2,501,93.2c8.4,0,15,3.7,18.5,7.8h.5V95.3ZM366.1,128.4c0-12.7-9-21.3-19.5-21.3s-19.5,8.6-19.5,21.3,9.1,21.3,19.5,21.3,19.5-8.8,19.5-21.3m15.2,0c0,20.2-15.6,35.1-34.7,35.1S312,148.6,312,128.4s15.5-35.2,34.6-35.2,34.7,14.8,34.7,35.2m62.5,0c0-12.7-9.1-21.3-19.5-21.3s-19.5,8.6-19.5,21.3,9,21.3,19.5,21.3,19.5-8.8,19.5-21.3m15.1,0c0,20.2-15.5,35.1-34.6,35.1s-34.7-14.9-34.7-35.1,15.6-35.2,34.7-35.2,34.6,14.8,34.6,35.2M252.6,163.5c-30.1,0-55.4-24.5-55.4-54.6s25.3-54.6,55.4-54.6c16.7,0,28.5,6.5,37.5,15.1L279.5,79.9a38,38,0,0,0-26.9-10.7c-21.9,0-39.1,17.8-39.1,39.7s17.2,39.7,39.1,39.7c14.3,0,22.4-5.7,27.6-10.9s7.1-10.4,8.1-18.8H252.6V104h50.2a44.2,44.2,0,0,1,.8,9.3c0,11.2-3,25.1-12.9,34.9s-21.8,15.3-38.1,15.3"/><g id="flowRoot2998"><path id="path3911" class="cls-2" d="M671.6,160.4V68.7h11.7l31.9,55.8h.6l31.9-55.8h11.7v91.7H747.7V106l.5-15.4h-.5L719,140.9h-7L683.3,90.6h-.5l.5,15.4v54.4Z"/><path id="path3913" class="cls-2" d="M795.7,162.5a24.9,24.9,0,0,1-16.7-5.8c-4.5-3.9-6.7-8.9-6.7-15.3s2.6-12.1,7.9-16,11.8-5.9,19.6-5.9,12.6,1.3,17,3.9v-1.8a14.3,14.3,0,0,0-4.7-11.1,16.8,16.8,0,0,0-11.7-4.2,17.9,17.9,0,0,0-9.2,2.5,12.2,12.2,0,0,0-5.7,6.6l-10.8-4.6c1.5-3.8,4.3-7.2,8.6-10.4s9.9-4.8,16.9-4.8,14.7,2.3,20,7,7.9,11.4,7.9,19.9v37.9H816.8v-8.7h-.5c-4.6,7.2-11.6,10.8-20.6,10.8Zm1.9-10.8a19,19,0,0,0,13.3-5.5,16.6,16.6,0,0,0,5.9-12.8c-3.3-2.8-8.3-4.1-15-4.1s-10,1.2-12.9,3.7a11.2,11.2,0,0,0-4.3,8.7,8.4,8.4,0,0,0,3.9,7.3,16,16,0,0,0,9.1,2.7Z"/><path id="path3915" class="cls-2" d="M874,162.5a26.6,26.6,0,0,1-12.8-3.1,22.4,22.4,0,0,1-8.6-7.7h-.5l.5,8.7v27.7H840.9V97.6h11.2v8.7h.5a22.2,22.2,0,0,1,8.6-7.6A25.5,25.5,0,0,1,874,95.6q12.3,0,21,9.6c5.9,6.4,8.9,14.3,8.9,23.8s-3,17.4-8.9,23.8-12.8,9.7-21,9.7Zm-1.9-10.8a18.8,18.8,0,0,0,14.1-6.2c3.9-4.2,5.9-9.6,5.9-16.5s-2-12.3-5.9-16.4a19,19,0,0,0-28.2-.1c-3.9,4.1-5.9,9.6-5.9,16.5s2,12.4,5.9,16.5a18.8,18.8,0,0,0,14.1,6.2Z"/><path id="path3917" class="cls-2" d="M938,162.5c-7,0-12.8-1.8-17.3-5.2a29.9,29.9,0,0,1-10.1-12.8l10.5-4.3q5.1,11.7,17.1,11.7a15.9,15.9,0,0,0,9-2.4,7.3,7.3,0,0,0,3.5-6.4c0-4.1-2.9-6.8-8.6-8.3l-12.7-3.1a29.4,29.4,0,0,1-11.4-5.8,14.3,14.3,0,0,1-5.3-11.6c0-5.6,2.4-10.1,7.3-13.5a31.6,31.6,0,0,1,32.4-1.4,21,21,0,0,1,9.3,10.8l-10.2,4.2c-2.3-5.6-7.1-8.3-14.4-8.3a16.2,16.2,0,0,0-8.8,2.2,6.6,6.6,0,0,0-3.6,5.9c0,3.5,2.8,6,8.3,7.3l12.5,2.9c5.9,1.3,10.2,3.7,13,7a17.5,17.5,0,0,1,4.3,11.3c0,5.7-2.4,10.3-7,14.1s-10.5,5.7-17.8,5.7Z"/></g><g id="g842"><path id="path835" class="cls-3" d="M72.2,151.5a169.2,169.2,0,0,1,13.4,19.7c3.4,6.5,4.8,10.8,7.3,18.6,1.5,4.3,2.9,5.6,5.8,5.6s4.7-2.2,5.9-5.6c2.3-7.3,4.2-12.9,7-18.2,5.7-10.2,12.9-19.3,19.8-28,2-2.5,14.2-16.9,19.7-28.3a69.1,69.1,0,0,0,6.7-29.9,58.7,58.7,0,0,0-6.7-27.6L132,62.9,120.3,93.6l-2.9,4.2-.6.8-.8.9-1.3,1.6-1.9,1.9-10.4,8.5-25.9,15Z"/><path id="path833" class="cls-4" d="M45.4,113.2c6.4,14.5,18.5,27.2,26.8,38.3l43.9-52a23.1,23.1,0,0,1-17.4,8.1A22.5,22.5,0,0,1,76.1,85.1a23.8,23.8,0,0,1,5.2-14.5L51.5,78.5Z"/><path id="path831" class="cls-5" d="M116.6,28.7a58.5,58.5,0,0,1,34.5,29.1l-35,41.8a24.4,24.4,0,0,0,5.1-14.5A22.7,22.7,0,0,0,98.7,62.6a23.4,23.4,0,0,0-17.4,8V44.2Z"/><path id="path829" class="cls-6" d="M53.4,47.1A58.7,58.7,0,0,1,98.5,26a60.8,60.8,0,0,1,18,2.7L81.3,70.6h-25Z"/><path id="path827" class="cls-7" d="M45.4,113.2s-5.7-11.4-5.7-27.9A59,59,0,0,1,53.5,47.2L81.4,70.7Z"/></g></g></svg>