<svg width="36" height="11" viewBox="0 0 36 11" fill="none" xmlns="http://www.w3.org/2000/svg">
<path d="M14.3679 0L12.6037 10.978H15.4235L17.1865 0H14.3679ZM22.8732 4.4718C21.8878 3.9852 21.2837 3.65679 21.2837 3.1591C21.2958 2.7066 21.7946 2.24301 22.9084 2.24301C23.8245 2.22 24.4978 2.43529 25.0086 2.64949L25.2645 2.7637L25.6478 0.466842C25.0909 0.251552 24.2078 0.014336 23.117 0.014336C20.3325 0.014336 18.3717 1.46209 18.3596 3.5327C18.3366 5.06069 19.7633 5.90859 20.8311 6.41724C21.9219 6.93902 22.2932 7.27731 22.2932 7.7409C22.2812 8.45267 21.4112 8.78109 20.5994 8.78109C19.4747 8.78109 18.8705 8.61194 17.9533 8.21533L17.582 8.04619L17.1877 10.4332C17.8501 10.7276 19.0682 10.9867 20.3326 11C23.2918 11 25.2174 9.57417 25.2416 7.36743C25.2512 6.15689 24.4989 5.22971 22.8732 4.4718ZM32.8767 0.0339738H30.6952C30.0229 0.0339738 29.5121 0.227337 29.221 0.917179L25.0326 10.978H27.9918L28.8068 8.79976H32.1176L32.5405 10.9867H35.1505L32.8767 0.0339738ZM29.6275 6.60157C29.6846 6.60711 30.7634 3.04586 30.7634 3.04586L31.6223 6.60157C31.6223 6.60157 30.1845 6.60157 29.6275 6.60157ZM10.2476 0L7.48498 7.45851L7.18403 5.98762C6.67322 4.29049 5.07174 2.44625 3.28448 1.53016L5.81423 10.967H8.79768L13.2311 0.00120409H10.2476V0Z" fill="#2394BC"/>
<path d="M6.2546 1.41537C6.03931 0.578304 5.35272 0.0137565 4.42024 0.00170898H0.0450578L0 0.20483C3.41295 1.04623 6.27761 3.63525 7.20696 6.07053L6.2546 1.41537Z" fill="#EFC75E"/>
</svg>
